<svg id="Layer_1" data-name="Layer 1" xmlns="http://www.w3.org/2000/svg" viewBox="0 0 155.18 72.8"><defs><style>.cls-1{fill:#ed1c24;}</style></defs><path class="cls-1" d="M50.55,62.81a12,12,0,0,1,1.11-1.46,28.22,28.22,0,0,1,8.19-6.18,35.49,35.49,0,0,1,14.43-3.94c.85,0,1.31-.09,2.15-.07A25.2,25.2,0,0,0,58.65,75c0,10.18,6.72,21.76,21.71,24.66a17.37,17.37,0,0,0,3.39.33,18.52,18.52,0,0,0,13-5.48l8.46-8.09-12-12.27,8.47-8.7,14.68,15.07,17.47,18-8.47,8.69-11.68-12-5.94,5.53a35.79,35.79,0,0,1-11.88,8A30.18,30.18,0,0,1,92.23,110l-.25.08a36.5,36.5,0,0,1-35.14-9.19c-.33-.33-.65-.67-1-1-6.6-7.61-9.25-18.33-8-28.54A20.93,20.93,0,0,1,50.55,62.81Z" transform="translate(-47.57 -38.6)"/><path class="cls-1" d="M202.75,75a36.73,36.73,0,0,1-2.63,13.67,36.25,36.25,0,0,1-7.87,12,35.58,35.58,0,0,1-39,8c-.5-.2-1-.42-1.47-.65a35.23,35.23,0,0,1-10.41-7.37L126.84,85.93,101.61,60.34l-.07-.07a12.88,12.88,0,0,1-.93-.91A31.59,31.59,0,0,0,84.28,50a35.66,35.66,0,0,0-22.56,1.51,35.74,35.74,0,0,0-11.64,8.14A37.16,37.16,0,0,1,57,49.28a35.72,35.72,0,0,1,11.9-8,35.54,35.54,0,0,1,27.08,0,35.74,35.74,0,0,1,11.88,8l42.21,42.84a23.32,23.32,0,0,0,16.75,7,23,23,0,0,0,14.09-4.75c.41-.3.79-.62,1.17-.93a27.26,27.26,0,0,0,8.23-13.29,18.81,18.81,0,0,0,0-10.36c-3.28-11.54-12.49-19-23.49-19a23.5,23.5,0,0,0-15.9,6.2l-1.06,1-14.66,14-8.57-8.69L140.46,50.2l1-.93a35.67,35.67,0,0,1,38.93-8,36.26,36.26,0,0,1,19.76,20.07A36.63,36.63,0,0,1,202.75,75Z" transform="translate(-47.57 -38.6)"/></svg>