<svg id="Layer_1" data-name="Layer 1" xmlns="http://www.w3.org/2000/svg" viewBox="0 0 143.28 98.85"><defs><style>.cls-1{fill:#ed1c24;}</style></defs><path class="cls-1" d="M53.2,44.8a10.93,10.93,0,0,1,1-1.34,25.87,25.87,0,0,1,7.53-5.68A32.83,32.83,0,0,1,75,34.16c.77,0,1.2-.08,2-.06A23.15,23.15,0,0,0,60.63,56c0,9.35,6.18,20,19.95,22.65a16,16,0,0,0,3.11.3,17,17,0,0,0,12-5l7.77-7.44-11-11.27,7.79-8,13.48,13.85,16.05,16.48-7.78,8-10.73-11-5.46,5.08A32.68,32.68,0,0,1,94.86,87a30.66,30.66,0,0,1-3.38,1.17l-.23.07A33.51,33.51,0,0,1,59,79.76c-.31-.31-.6-.62-.9-1C52,71.82,49.59,62,50.73,52.59A19.23,19.23,0,0,1,53.2,44.8Z" transform="translate(-49.98 -22.56)"/><path class="cls-1" d="M193,56a33.52,33.52,0,0,1-2.42,12.55,33.12,33.12,0,0,1-7.23,11A32.69,32.69,0,0,1,147.55,87c-.46-.18-.91-.39-1.35-.59a32.62,32.62,0,0,1-9.56-6.77L123.27,66,100.1,42.53a.46.46,0,0,1-.07-.07,10.7,10.7,0,0,1-.85-.83,29,29,0,0,0-15-8.59A31.56,31.56,0,0,0,52.77,41.9a34.07,34.07,0,0,1,6.35-9.53A33,33,0,0,1,70.05,25a32.68,32.68,0,0,1,24.88,0,33,33,0,0,1,10.91,7.35l38.77,39.35a21.49,21.49,0,0,0,28.33,2.12c.37-.28.72-.57,1.07-.86a25,25,0,0,0,7.56-12.2,17.34,17.34,0,0,0,0-9.53c-3-10.6-11.47-17.43-21.57-17.43a21.57,21.57,0,0,0-14.61,5.7l-1,.92L131,53.29l-7.87-8,12.7-12.09.89-.86a32.89,32.89,0,0,1,53.91,11.11A33.39,33.39,0,0,1,193,56Z" transform="translate(-49.98 -22.56)"/><path class="cls-1" d="M73.55,96.29a5.51,5.51,0,0,1-5.2,5.44H50c.27-2.76,2.41-5.44,5-5.44Zm-8.77,7.11v18H58.72v-18Z" transform="translate(-49.98 -22.56)"/><path class="cls-1" d="M80.92,103.51l-6.75,17.9H68.08l9.45-25.12h6.74l1.4,3.66C83.68,99.05,82.16,100.41,80.92,103.51Zm12.83,17.9H87.63l-2-5.38h-8l2-5.44h3.89l-1.93-5.19.44-1.17c.78-1.93,1.91-3.29,3.24-2.91.72.19,1.28,1.09,1.61,2C86.92,103.28,91.34,115.05,93.75,121.41Z" transform="translate(-49.98 -22.56)"/><path class="cls-1" d="M143,96.28c-.72,3.86-2.65,5.45-5.77,5.45H93c.27-2.76,2.43-5.45,5-5.45h45Z" transform="translate(-49.98 -22.56)"/><path class="cls-1" d="M101.63,103.36V116h8.52c1.7,0,1.64-2.08,1.64-2.08,0-.42-.09-2.31-1.64-2.31h-7v-5.45h7c1.49,0,1.58-1.7,1.58-2.12v-.19c0-.11,0-.26,0-.45h.77c1.69,0,4.19.72,4.19,3.41a6.21,6.21,0,0,1-.56,2.34c1.75,1.44,1.69,4.77,1.69,4.77,0,5.48-2.35,7.53-5.88,7.53H95.53v-18Z" transform="translate(-49.98 -22.56)"/><path class="cls-1" d="M143.11,114c0,4.35-3.12,7.42-5.92,7.42H125c-2.49,0-5.29-2.27-5.79-5.45h16.22c1.72,0,1.64-2,1.64-2v-.08c0-.61-.06-2-1.64-2H125a5.23,5.23,0,0,1-4.22-2.38,4.33,4.33,0,0,1-.38-1.78c0-3.06,2.79-4.31,4.84-4.31a2.08,2.08,0,0,0,0,.41v.57c0,.53,0,2,1.6,2h10.43C140.58,106.42,143.11,110.06,143.11,114Z" transform="translate(-49.98 -22.56)"/><path class="cls-1" d="M155.53,103.51l-6.75,17.9h-6.09l9.45-25.12h6.74l1.4,3.66C158.29,99.05,156.78,100.41,155.53,103.51Zm12.83,17.9h-6.12l-2-5.38h-8l2.05-5.44h3.89l-1.93-5.19.45-1.17c.77-1.93,1.9-3.29,3.23-2.91.72.19,1.28,1.09,1.61,2C161.53,103.28,166,115.05,168.36,121.41Z" transform="translate(-49.98 -22.56)"/><path class="cls-1" d="M193.26,104.5l-.09-.16a5.49,5.49,0,0,0-4.84-2.61H167.65c.27-2.76,2.44-5.44,5-5.44h13.88C190.29,96.25,192.79,99.84,193.26,104.5Zm-.17,3.55a8.42,8.42,0,0,1-4.67,7.19,2.27,2.27,0,0,1-1.16.3h-11v5.87h-6.09v-18h6.09v6.77h8.32c1.48,0,2.7-1.89,2.7-4.2a5.86,5.86,0,0,0-.56-2.57h1.63A4.54,4.54,0,0,1,193.09,108.05Z" transform="translate(-49.98 -22.56)"/></svg>